<svg xmlns:sketch="http://www.bohemiancoding.com/sketch/ns" xmlns:dc="http://purl.org/dc/elements/1.1/" xmlns:cc="http://creativecommons.org/ns#" xmlns:rdf="http://www.w3.org/1999/02/22-rdf-syntax-ns#" xmlns:svg="http://www.w3.org/2000/svg" xmlns="http://www.w3.org/2000/svg" xmlns:sodipodi="http://sodipodi.sourceforge.net/DTD/sodipodi-0.dtd" xmlns:inkscape="http://www.inkscape.org/namespaces/inkscape" width="599.8" height="144.1" viewBox="0 0 599.76001 144.05469" version="1.1" inkscape:version="0.91pre2 r"><style>.style0{fill:	none;fill-rule:	evenodd;}.style1{fill:	#de4f4f;}.style2{fill:	#27272b;}</style><style>.style0{fill:	none;fill-rule:	evenodd;}.style1{fill:	#de4f4f;}.style2{fill:	#27272b;}</style><metadata><rdf:RDF><cc:Work rdf:about=""><dc:format>image/svg+xml</dc:format><dc:type rdf:resource="http://purl.org/dc/dcmitype/StillImage"/><dc:title>meteor-logo</dc:title></cc:Work></rdf:RDF></metadata><!-- Generator: Sketch 3.1.1 (8761) - http://www.bohemiancoding.com/sketch --><title>Meteor Logo</title><desc>Created with Sketch.</desc><defs/><g sketch:type="MSPage" transform="translate(0,83.4849)" class="style0"><g sketch:type="MSArtboardGroup" transform="translate(-75,-78)"><g><g transform="matrix(2.4,0,0,2.4,430.7143,-5.7248999)" sketch:type="MSShapeGroup" class="style1"><path d="m 0.1 0.1 52.4 55.5 c 0 0 1.8 1.3 3.1 -0.2 1.4 -1.5 0.3 -2.9 0.3 -2.9 L 0.1 0.1 Z" inkscape:connector-curvature="0" class="style1"/><path d="m 16.7 5.3 39.9 43.1 c 0 0 1.8 1.3 3.1 -0.2 1.4 -1.5 0.3 -2.9 0.3 -2.9 L 16.7 5.3 Z" inkscape:connector-curvature="0" class="style1"/><path d="m 5 16.6 39.9 43 c 0 0 1.8 1.3 3.1 -0.2 1.4 -1.5 0.3 -2.9 0.3 -2.9 L 5 16.6 Z" inkscape:connector-curvature="0" class="style1"/><path d="m 30.7 9.9 27.9 30 c 0 0 1.2 0.9 2.2 -0.1 1 -1 0.2 -2.1 0.2 -2.1 L 30.7 9.9 Z" inkscape:connector-curvature="0" class="style1"/><path d="m 8.9 29.6 27.8 30 c 0 0 1.2 0.9 2.2 -0.1 1 -1 0.2 -2.1 0.2 -2.1 L 8.9 29.6 Z" inkscape:connector-curvature="0" class="style1"/><path d="m 45 16.4 12.6 13.7 c 0 0 0.6 0.4 1.1 -0.1 0.5 -0.5 0.1 -1 0.1 -1 L 45 16.4 Z" inkscape:connector-curvature="0" class="style1"/><path d="m 15.9 43.4 12.6 13.7 c 0 0 0.6 0.4 1.1 -0.1 0.5 -0.5 0.1 -1 0.1 -1 L 15.9 43.4 Z" inkscape:connector-curvature="0" class="style1"/></g><g transform="matrix(2.4,0,0,2.4,75,48.453317)" sketch:type="MSShapeGroup" class="style2"><path d="m 217.9 0 0 36.8 8.3 0 0 -11.9 6.2 0 8 11.9 9.5 0 L 241 24 c 0 0 7.9 -3.1 7.9 -11.6 C 249 0.4 238.1 0 238.1 0 l -20.2 0 z m 8.3 7.1 0 10.7 10.7 0 c 0 0 4.1 0 4.1 -5.3 0 -5.5 -5 -5.3 -5 -5.3 l -9.8 0 z" inkscape:connector-curvature="0" class="style2"/><path d="m 125.6 0 0 36.8 28 0 0 -7.1 -19.6 0 0 -7.7 17 0 0 -7.1 -17 0 0 -7.7 19.6 0 0 -7.1 -28 0 z" inkscape:connector-curvature="0" class="style2"/><path d="m 85.1 0 0 7.1 11 0 0 29.7 8.3 0 0 -29.7 11 0 0 -7.1 L 85 0 Z" inkscape:connector-curvature="0" class="style2"/><path d="m 47 0 0 36.8 28 0 0 -7.1 -19.6 0 0 -7.7 17 0 0 -7.1 -17 0 0 -7.7 19.6 0 0 -7.1 -28 0 z" inkscape:connector-curvature="0" class="style2"/><path d="m 0 0 0 36.8 8.3 0 0 -23.2 10.1 14.9 10.1 -14.9 0 23.2 8.3 0 L 36.8 0 28.5 0 18.4 15.1 8.3 0 0 0 Z" inkscape:connector-curvature="0" class="style2"/></g></g></g></g></svg>