<svg xmlns="http://www.w3.org/2000/svg" width="100" height="100"><style>.style0{fill:	none;}.style1{fill:	#fff;}.style2{fill:	#de4f4f;}</style><g><title>Asteroid</title><rect height="402" width="582" y="-1" x="-1" class="style0"/></g><g><title>Layer 1</title><g><circle r="1" cy="33.7" cx="89.3" class="style1"/><circle r="1" cy="34.2" cx="79" class="style1"/><circle r="1" cy="23.6" cx="97.4" class="style1"/><circle r="1" cy="31.1" cx="56.1" class="style1"/><circle r="1" cy="30.3" cx="66.9" class="style1"/><circle r="1" cy="40" cx="78.5" class="style1"/><circle r="1" cy="40.7" cx="67.8" class="style1"/><circle r="1" cy="37.6" cx="73.1" class="style1"/><circle r="1" cy="30.1" cx="86.2" class="style1"/><circle r="1" cy="33.2" cx="71.3" class="style1"/><circle r="1" cy="40.1" cx="59.4" class="style1"/><circle r="1" cy="25.1" cx="76" class="style1"/><circle r="1" cy="20.1" cx="84.6" class="style1"/><circle r="1" cy="47.8" cx="74.5" class="style1"/><circle r="8.3" cy="67.8" cx="16.2" class="style2"/><path d="m22.089001 56.175999c0.231998 0.4 0.7 0.6 1.1 0.625c0.212 0 0.4 -0.1 0.6 -0.167l32.528999 -18.780998c0.598 -0.3 0.8 -1.1 0.5 -1.708c-0.347 -0.6 -1.1 -0.8 -1.7 -0.458l-32.528999 18.780998c-0.598001 0.3 -0.8 1.1 -0.5 1.708z" class="style1"/><path d="m32.831001 56.688c0.211998 0 0.4 -0.1 0.6 -0.167l14.658997 -8.465c0.598003 -0.3 0.8 -1.1 0.5 -1.708c-0.344997 -0.6 -1.1 -0.8 -1.7 -0.458l-14.658997 8.465c-0.598001 0.3 -0.8 1.1 -0.5 1.708c0.231001 0.4 0.7 0.6 1.1 0.625z" class="style1"/><path d="m31.304001 61.778999c0.231998 0.4 0.7 0.6 1.1 0.625c0.211998 0 0.4 -0.1 0.6 -0.167l22.036999 -12.723c0.598 -0.3 0.8 -1.1 0.5 -1.708c-0.347 -0.6 -1.1 -0.8 -1.7 -0.458l-22.037001 12.723999c-0.598 0.3 -0.8 1.1 -0.5 1.707001z" class="style1"/><path d="m66.202003 47.094002c-0.347 -0.6 -1.1 -0.8 -1.7 -0.458l-34.851004 20.121002c-0.598 0.3 -0.8 1.1 -0.5 1.707993c0.232 0.4 0.7 0.6 1.1 0.625c0.212002 0 0.4 -0.1 0.6 -0.167l34.852003 -20.120998c0.597 -0.3 0.8 -1.1 0.5 -1.707996z" class="style1"/><path d="m63.268002 52.806l-41.780001 24.121002c-2.445002 1.4 -5.3 1.8 -8 1.056999c-2.729 -0.7 -5 -2.5 -6.4 -4.927002s-1.787 -5.3 -1.1 -8.024002c0.731 -2.7 2.5 -5 4.9 -6.419998l35.211 -20.328999c0.598 -0.3 0.8 -1.1 0.5 -1.708c-0.347 -0.6 -1.1 -0.8 -1.7 -0.458l-35.212001 20.328999c-3.024 1.7 -5.2 4.6 -6.1 7.938004c-0.904 3.4 -0.4 6.9 1.3 9.920998s4.565001 5.2 7.9 6.092003c1.126 0.3 2.3 0.5 3.4 0.450996c2.265999 0 4.5 -0.6 6.5 -1.756996l41.779999 -24.121002c0.598 -0.3 0.8 -1.1 0.5 -1.708c-0.345001 -0.6 -1.1 -0.8 -1.7 -0.457001z" class="style1"/><path d="m49.005001 36.425999c0.211998 0 0.4 -0.1 0.6 -0.167l3.600998 -2.078999c0.598 -0.3 0.8 -1.1 0.5 -1.708c-0.346001 -0.6 -1.1 -0.8 -1.7 -0.458l-3.600998 2.078999c-0.598003 0.3 -0.8 1.1 -0.5 1.708c0.230999 0.4 0.7 0.6 1.1 0.625z" class="style1"/><path d="m59.209999 35.993999c0.212002 0 0.4 -0.1 0.6 -0.167l4.209 -2.43c0.598 -0.3 0.8 -1.1 0.5 -1.708c-0.346001 -0.6 -1.1 -0.8 -1.7 -0.457998l-4.209 2.429998c-0.598 0.3 -0.8 1.1 -0.5 1.708c0.232002 0.4 0.7 0.6 1.1 0.625z" class="style1"/><path d="m70.366997 48.707001l-3.591995 2.073997c-0.598 0.3 -0.8 1.1 -0.5 1.708c0.231003 0.4 0.7 0.6 1.1 0.625c0.211998 0 0.4 -0.1 0.6 -0.167l3.591995 -2.073997c0.598 -0.3 0.8 -1.1 0.5 -1.708c-0.345001 -0.6 -1.1 -0.8 -1.7 -0.458z" class="style1"/><path d="m55.292 41.025002l-4.919998 2.84c-0.598003 0.3 -0.8 1.1 -0.5 1.708c0.230999 0.4 0.7 0.6 1.1 0.625c0.211998 0 0.4 -0.1 0.6 -0.167004l4.919998 -2.839996c0.598 -0.3 0.8 -1.1 0.5 -1.708s-1.109001 -0.8 -1.7 -0.458z" class="style1"/><path d="m56.848999 47.030998c0.232002 0.4 0.7 0.6 1.1 0.625c0.212002 0 0.4 -0.1 0.6 -0.167l6.323997 -3.650997c0.598 -0.3 0.8 -1.1 0.5 -1.708c-0.347 -0.6 -1.1 -0.8 -1.7 -0.458l-6.324001 3.651001c-0.598 0.3 -0.8 1.1 -0.5 1.707996z" class="style1"/><path d="m74.323997 40.958l-6.321999 3.652c-0.598 0.3 -0.8 1.1 -0.5 1.708c0.231003 0.4 0.7 0.6 1.1 0.625c0.211998 0 0.4 -0.1 0.6 -0.167l6.321999 -3.652c0.598 -0.3 0.8 -1.1 0.5 -1.708c-0.344002 -0.6 -1.1 -0.8 -1.7 -0.458z" class="style1"/></g></g></svg>
