<svg width="100" height="100" xmlns="http://www.w3.org/2000/svg"><title>Happy slide symbol</title><path fill="none" d="M-1-1h582v402H-1z"/><title>Layer 1</title><path fill="#fff" d="M79.062 72.5V30.312H80c2.585 0 4.688-2.102 4.688-4.688S82.585 20.938 80 20.938H20c-2.585 0-4.688 2.102-4.688 4.688s2.102 4.688 4.688 4.688h.938V72.5c0 .52.42.938.938.938h27.188v3.922c-1.09.39-1.875 1.42-1.875 2.64 0 1.552 1.26 2.813 2.81 2.813S52.813 81.55 52.813 80c0-1.22-.786-2.25-1.875-2.64v-3.922h27.187c.517 0 .936-.42.936-.938zM50 80.938c-.517 0-.938-.42-.938-.938s.42-.938.938-.938.938.42.938.938-.42.938-.938.938zM17.188 25.625c0-1.55 1.262-2.812 2.812-2.812h60c1.55 0 2.812 1.262 2.812 2.812s-1.26 2.813-2.812 2.813H20c-1.55 0-2.812-1.262-2.812-2.813zm60 4.687v41.25H22.812v-41.25h54.376z"/><ellipse fill="#fff" ry="2.812" rx="1.875" cy="52.812" cx="40.625"/><ellipse fill="#fff" ry="2.812" rx="1.875" cy="52.812" cx="59.375"/><path fill="#fff" d="M59.375 57.5h-18.75c-.586 0-1.137.274-1.492.74-.354.467-.47 1.072-.313 1.637.08.285 2.05 6.998 11.18 6.998 9.134 0 11.103-6.713 11.183-6.998.156-.564.04-1.17-.315-1.637-.354-.466-.907-.74-1.493-.74z"/></svg>
