<?xml version="1.0"?>
<svg width="100" height="100" xmlns="http://www.w3.org/2000/svg">

 <g>
  <title>background</title>
  <rect fill="none" id="canvas_background" height="402" width="582" y="-1" x="-1"/>
 </g>
 <g>
  <title>Layer 1</title>
  <path fill="#ffffff" id="svg_1" d="m52.492001,66.969002c-0.313999,0 -0.630001,-0.115005 -0.878002,-0.344002l-16.701,-15.355c-0.5,-0.459999 -0.561996,-1.227001 -0.140999,-1.760002c0.065002,-0.081997 6.573002,-8.287998 15.407001,-16.567997c11.986,-11.234001 22.347,-17.270001 30.792999,-17.938002c0.377998,-0.032 0.752998,0.108001 1.020996,0.377s0.405006,0.644 0.374001,1.023c-0.079994,0.977001 -2.281998,24.221001 -28.970997,50.195c-0.25,0.247002 -0.577,0.370003 -0.903999,0.370003zm-14.924,-16.783001l14.895,13.695c12.980999,-12.875999 19.699001,-25.010002 23.062,-32.995001c2.578995,-6.124001 3.625,-10.788 4.026001,-13.094999c-16.770004,2.765999 -37.757004,27.271999 -41.983002,32.395z"/>
  <path fill="#ffffff" id="svg_2" d="m48.554001,70.103996c-0.324001,0 -0.639,-0.120995 -0.878002,-0.341995l-15.459999,-14.215c-0.528,-0.484001 -0.562,-1.306 -0.077,-1.834l3.077,-3.347c0.232002,-0.253002 0.556999,-0.403999 0.900002,-0.417999c0.34,-0.021 0.68,0.107998 0.932999,0.341l15.459999,14.214996c0.528,0.484001 0.562,1.305 0.077,1.834l-3.077,3.346001c-0.231998,0.254005 -0.556999,0.403999 -0.899998,0.417999c-0.019001,0.001999 -0.037003,0.001999 -0.055,0.001999zm-13.626999,-15.588997l13.549999,12.458l1.320999,-1.437996l-13.549999,-12.457005l-1.320999,1.437z"/>
  <g id="svg_3">
   <path fill="#de4f4f" id="svg_4" d="m34.856998,62.129002c0,0 -8.770998,1.550999 -13.901999,13.713001c0,0 4.844,-1.299004 6.681999,-3.391006c0,0 -6.427999,7.314003 -8.136999,11.369003c0,0 5.888,-0.380997 13.235001,-8.739998c0,0 -2.755001,3.134995 -2.501001,7.061996c0,0 12.316,-7.695 10.895002,-14.501999l-6.272003,-5.510998z"/>
   <path fill="#de4f4f" id="svg_5" d="m19.5,84.32c-0.160999,0 -0.313,-0.075996 -0.407,-0.209c-0.101,-0.142998 -0.121,-0.323997 -0.054001,-0.484001c1.065001,-2.527 3.860001,-6.219002 5.898001,-8.736c-1.863001,0.892998 -3.728001,1.400002 -3.853001,1.433998c-0.185999,0.049004 -0.381001,-0.011993 -0.507,-0.153999c-0.125,-0.144997 -0.157999,-0.348 -0.084,-0.522995c5.179001,-12.270004 13.907001,-13.945004 14.276001,-14.010002c0.148998,-0.028999 0.302998,0.015999 0.417,0.117001l6.271,5.509998c0.080997,0.071999 0.138,0.167999 0.159,0.273003c1.476997,7.068001 -10.604002,14.707001 -11.119001,15.028999c-0.147999,0.094002 -0.337,0.101997 -0.493,0.020996s-0.258999,-0.237999 -0.271,-0.413994c-0.093,-1.438004 0.191,-2.768005 0.604,-3.895004c-6.059,5.664001 -10.59,6.027 -10.806999,6.041c-0.009001,0 -0.019001,0 -0.030001,0zm8.136999,-12.369003c0.117001,0 0.235001,0.041 0.330002,0.125c0.206999,0.182007 0.227999,0.498001 0.046,0.705002c-0.060001,0.068001 -5.545,6.330002 -7.643,10.371002c1.890999,-0.473 6.540998,-2.203003 11.988001,-8.400002c0.001999,0 0.000999,-0.001999 0.000999,-0.001999c0.182999,-0.207001 0.499001,-0.226997 0.704998,-0.044998c0.208,0.181999 0.229,0.498001 0.047001,0.705002c0,0 0,0 -0.000999,0l0,0c-0.043999,0.050995 -2.203001,2.571999 -2.381001,5.802994c2.594002,-1.774994 10.880001,-7.916 9.939999,-13.310997l-5.949997,-5.229c-1.342003,0.34 -8.337002,2.550999 -12.865002,12.367001c1.486,-0.494003 4.190001,-1.535004 5.406,-2.919998c0.1,-0.110001 0.237999,-0.169006 0.376999,-0.169006z"/>
  </g>
  <path fill="#ffffff" id="svg_6" d="m35.606998,52.229c-0.143997,0 -0.287998,-0.022999 -0.428997,-0.073002l-8.391001,-2.938c-0.412001,-0.143997 -0.724001,-0.486 -0.83,-0.91c-0.106001,-0.423 0.007999,-0.871998 0.303999,-1.192997l14.282,-15.533001c0.171001,-0.186001 0.393002,-0.318001 0.637001,-0.380001l15.839001,-4.001999l0.636997,2.516998l-15.462997,3.907001l-12.686001,13.795998l5.640999,1.975002l1.816002,-2.381001l2.062,1.574001l-2.388,3.129997c-0.249001,0.328003 -0.633999,0.511002 -1.031002,0.511002z"/>
  <path fill="#ffffff" id="svg_7" d="m55.694,75.474998c-0.069,0 -0.139,-0.005997 -0.208,-0.017998c-0.431999,-0.07 -0.798,-0.351997 -0.977001,-0.75l-3.631001,-8.114998c-0.212997,-0.475006 -0.119999,-1.031006 0.234001,-1.414001l2.788002,-2.998001l1.899998,1.768002l-2.202999,2.368999l2.474998,5.530998l12.667999,-13.778l2.255005,-17.467999l2.573997,0.332001l-2.307999,17.876999c-0.034004,0.265999 -0.150002,0.514 -0.332001,0.711998l-14.280003,15.532001c-0.247997,0.268997 -0.593998,0.419998 -0.954998,0.419998z"/>
  <path fill="#ffffff" id="svg_8" d="m65.688004,38.548c-1.319,0 -2.582005,-0.492001 -3.555004,-1.386002c-1.033001,-0.949997 -1.634998,-2.245998 -1.693001,-3.647999c-0.059998,-1.402 0.432003,-2.743999 1.382,-3.775999c0.991001,-1.079 2.401001,-1.698 3.868004,-1.698c1.32,0 2.583,0.493 3.555,1.386999c1.032997,0.950001 1.634995,2.245001 1.693001,3.647001c0.059998,1.402 -0.432007,2.743999 -1.382004,3.775997c-0.990997,1.079002 -2.401001,1.698002 -3.867996,1.698002zm0.001999,-7.913c-0.753006,0 -1.448006,0.305 -1.958004,0.858999c-0.48,0.522999 -0.729,1.201 -0.698997,1.910999c0.028999,0.710003 0.334,1.365002 0.855999,1.846001c1.047997,0.962002 2.795998,0.887001 3.757004,-0.158001c0.479996,-0.522999 0.728996,-1.201 0.698997,-1.910999c-0.028999,-0.709999 -0.334,-1.365 -0.856003,-1.845999c-0.491997,-0.451 -1.130997,-0.701 -1.798996,-0.701z"/>
  <rect fill="#ffffff" id="svg_9" height="12.434" width="2.595" transform="matrix(0.1415,0.9899,-0.9899,0.1415,73.0386,-13.2344) " y="29.275" x="42.852"/>
  <rect fill="#ffffff" id="svg_10" height="12.434" width="2.595" transform="matrix(0.1415,0.9899,-0.9899,0.1415,73.6159,-5.1081) " y="33.671" x="38.455"/>
  <rect fill="#ffffff" id="svg_11" height="11.564" width="2.596" transform="matrix(0.152,0.9884,-0.9884,0.152,74.249,3.7862) " y="39.381" x="33.62"/>
  <rect fill="#ffffff" id="svg_12" height="11.43" width="2.596" y="60.988" x="56.039"/>
  <rect fill="#ffffff" id="svg_13" height="12.74" width="2.596" transform="matrix(0.9992,0.0399,-0.0399,0.9992,2.5246,-2.4062) " y="55.709" x="60.279"/>
  <rect fill="#ffffff" id="svg_14" height="13.077" width="2.596" transform="matrix(0.9992,0.0391,-0.0391,0.9992,2.2455,-2.549) " y="49.555" x="64.948"/>
  <path fill="#ffffff" id="svg_15" d="m48.027,62.286999c-0.339001,0 -0.665001,-0.132999 -0.908001,-0.370998l-6.515999,-6.386002c-0.512001,-0.500999 -0.521,-1.322998 -0.019001,-1.834999l12.316002,-12.571999c0.181,-0.185001 0.411999,-0.311001 0.664997,-0.363003l6.146,-1.264c0.400002,-0.084 0.817001,0.029003 1.124001,0.301003c0.306,0.271999 0.465,0.672001 0.431,1.079998l-0.542,6.385002c-0.021999,0.263 -0.124001,0.511997 -0.292,0.715l-11.403999,13.836998c-0.23,0.278999 -0.569,0.451 -0.932999,0.471001c-0.021999,0 -0.045002,0.001999 -0.068001,0.001999zm-4.68,-7.702l4.578999,4.487l10.248001,-12.431999l0.361,-4.250999l-4.057999,0.834l-11.130001,11.362z"/>
  <rect fill="#ffffff" id="svg_16" height="23.657" width="2.596" transform="matrix(0.7434,0.6689,-0.6689,0.7434,46.8724,-21.291) " y="38.61" x="49.885"/>
 </g>
</svg>
